<svg width="17" height="16" viewBox="0 0 17 16" fill="none" xmlns="http://www.w3.org/2000/svg">
<path fill-rule="evenodd" clip-rule="evenodd" d="M7.16041 5.01225C7.78274 4.68933 8.49105 4.57087 9.18459 4.67371C9.89202 4.77862 10.547 5.10826 11.0527 5.61397C11.5584 6.11967 11.888 6.77461 11.9929 7.48205C12.0958 8.17558 11.9773 8.88389 11.6544 9.50622C11.3315 10.1286 10.8205 10.6332 10.1943 10.9484C9.56801 11.2637 8.85829 11.3734 8.16607 11.262C7.47386 11.1506 6.83439 10.8238 6.33862 10.328C5.84285 9.83224 5.51603 9.19277 5.40464 8.50056C5.29325 7.80834 5.40297 7.09862 5.71819 6.47236C6.03341 5.84609 6.53807 5.33516 7.16041 5.01225ZM8.98901 5.99262C8.57288 5.93092 8.1479 6.00199 7.7745 6.19574C7.4011 6.38949 7.0983 6.69605 6.90917 7.07181C6.72004 7.44757 6.65421 7.8734 6.72104 8.28873C6.78787 8.70406 6.98397 9.08774 7.28143 9.3852C7.57889 9.68266 7.96257 9.87876 8.3779 9.94559C8.79323 10.0124 9.21906 9.94659 9.59482 9.75746C9.97058 9.56833 10.2771 9.26553 10.4709 8.89213C10.6646 8.51873 10.7357 8.09375 10.674 7.67762C10.6111 7.25316 10.4133 6.8602 10.1099 6.55678C9.80643 6.25336 9.41347 6.05557 8.98901 5.99262Z" fill="#292F36"/>
<path d="M12.3335 3.6665C11.9653 3.6665 11.6668 3.96498 11.6668 4.33317C11.6668 4.70136 11.9653 4.99984 12.3335 4.99984H12.3402C12.7084 4.99984 13.0068 4.70136 13.0068 4.33317C13.0068 3.96498 12.7084 3.6665 12.3402 3.6665H12.3335Z" fill="#292F36"/>
<path fill-rule="evenodd" clip-rule="evenodd" d="M1.3335 4.6665C1.3335 2.45736 3.12436 0.666504 5.3335 0.666504H12.0002C14.2093 0.666504 16.0002 2.45736 16.0002 4.6665V11.3332C16.0002 13.5423 14.2093 15.3332 12.0002 15.3332H5.3335C3.12436 15.3332 1.3335 13.5423 1.3335 11.3332V4.6665ZM5.3335 1.99984C3.86074 1.99984 2.66683 3.19374 2.66683 4.6665V11.3332C2.66683 12.8059 3.86074 13.9998 5.3335 13.9998H12.0002C13.4729 13.9998 14.6668 12.8059 14.6668 11.3332V4.6665C14.6668 3.19374 13.4729 1.99984 12.0002 1.99984H5.3335Z" fill="#292F36"/>
</svg>
